<svg id="Calque_1" data-name="Calque 1" xmlns="http://www.w3.org/2000/svg" viewBox="0 0 237.44 324.87"><defs><style>.cls-1{fill:#fffabd;}.cls-2{fill:#f6cea6;}.cls-3{fill:#fffccc;}.cls-4{fill:#383127;}.cls-5{fill:#e5c59e;}.cls-6,.cls-8{fill:#fff;}.cls-6{stroke:#bfcfc6;stroke-width:12px;}.cls-6,.cls-7{stroke-miterlimit:10;}.cls-7{stroke:#000;stroke-width:13px;}</style></defs><title>Sans titre - 2</title><path class="cls-1" d="M364.82,475.18l6.54,5.87c6,5.4,15.69,3.08,21.62-5.19l28-39c5.93-8.27,5.86-19.34-.15-24.74l-6.53-5.87c-6-5.4-15.7-3.08-21.63,5.19l-28,39C358.74,458.71,358.81,469.78,364.82,475.18Z" transform="translate(-333.91 -178.12)"/><path class="cls-2" d="M391,482.17h0c6.06-6.47,8.21-15,4.8-19.13l-9.3-11.18c-3.41-4.1-11.08-2.17-17.14,4.3h0c-6.05,6.46-8.2,15-4.79,19.12l9.3,11.19C377.29,490.56,385,488.64,391,482.17Z" transform="translate(-333.91 -178.12)"/><path class="cls-1" d="M543.85,474.36l-6.53,5.87c-6,5.4-15.7,3.08-21.63-5.18l-28-39c-5.93-8.26-5.86-19.34.15-24.74l6.54-5.87c6-5.39,15.69-3.07,21.62,5.19l28,39C549.93,457.89,549.86,469,543.85,474.36Z" transform="translate(-333.91 -178.12)"/><path class="cls-2" d="M517.66,481.35h0c-6.06-6.47-8.21-15-4.8-19.12L522.17,451c3.4-4.09,11.07-2.17,17.13,4.3h0c6.06,6.47,8.2,15,4.8,19.12l-9.31,11.19C531.38,489.74,523.71,487.82,517.66,481.35Z" transform="translate(-333.91 -178.12)"/><path class="cls-3" d="M120.13,226h0a51.21,51.21,0,0,1,51.21,51.21V311.6a0,0,0,0,1,0,0H70.93a2,2,0,0,1-2-2V277.25A51.21,51.21,0,0,1,120.13,226Z"/><ellipse class="cls-4" cx="454.57" cy="294.66" rx="103.62" ry="101.76" transform="translate(-420.93 128.2) rotate(-34.18)"/><ellipse class="cls-4" cx="547.66" cy="287.47" rx="20.66" ry="20.29" transform="translate(-400.81 179.26) rotate(-34.18)"/><ellipse class="cls-4" cx="544.08" cy="267.44" rx="20.66" ry="20.29" transform="translate(-390.17 173.79) rotate(-34.18)"/><ellipse class="cls-4" cx="531.26" cy="241.89" rx="20.66" ry="20.29" transform="translate(-378.03 162.17) rotate(-34.18)"/><ellipse class="cls-4" cx="519.8" cy="225.15" rx="20.66" ry="20.29" transform="matrix(0.83, -0.56, 0.56, 0.83, -370.61, 152.84)"/><ellipse class="cls-4" cx="498.35" cy="208.56" rx="20.66" ry="20.29" transform="translate(-364.99 137.92) rotate(-34.18)"/><path class="cls-4" d="M472.52,198.52,493,196.33a20.92,20.92,0,0,1-16.88,22.22,20.25,20.25,0,0,1-23.81-16.14,20.91,20.91,0,0,1,16.65-23.92,20.25,20.25,0,0,1,23.81,16.14Z" transform="translate(-333.91 -178.12)"/><ellipse class="cls-4" cx="544.9" cy="332.75" rx="20.66" ry="20.29" transform="translate(-426.72 185.53) rotate(-34.18)"/><ellipse class="cls-4" cx="550.8" cy="313.11" rx="20.66" ry="20.29" transform="translate(-414.67 185.46) rotate(-34.18)"/><ellipse class="cls-4" cx="513.52" cy="365.44" rx="20.66" ry="20.29" transform="translate(-450.51 173.55) rotate(-34.18)"/><ellipse class="cls-4" cx="531.12" cy="354.62" rx="20.66" ry="20.29" transform="translate(-441.39 181.57) rotate(-34.18)"/><ellipse class="cls-4" cx="487.12" cy="379.85" rx="20.66" ry="20.29" transform="translate(-463.17 161.21) rotate(-34.18)"/><ellipse class="cls-4" cx="467.13" cy="384.91" rx="20.66" ry="20.29" transform="translate(-469.47 150.85) rotate(-34.18)"/><ellipse class="cls-4" cx="440.52" cy="388.82" rx="20.66" ry="20.29" transform="translate(-476.26 136.58) rotate(-34.18)"/><ellipse class="cls-4" cx="418.68" cy="383.7" rx="20.66" ry="20.29" transform="translate(-477.16 123.42) rotate(-34.18)"/><ellipse class="cls-4" cx="391.68" cy="365.75" rx="20.66" ry="20.29" transform="translate(-471.74 105.15) rotate(-34.18)"/><ellipse class="cls-4" cx="377.17" cy="349.6" rx="20.66" ry="20.29" transform="translate(-465.17 94.2) rotate(-34.18)"/><ellipse class="cls-4" cx="357.54" cy="323.7" rx="20.66" ry="20.29" transform="translate(-454.01 78.7) rotate(-34.18)"/><ellipse class="cls-4" cx="354.45" cy="303.58" rx="20.66" ry="20.29" transform="translate(-443.24 73.49) rotate(-34.18)"/><ellipse class="cls-4" cx="356.81" cy="275.22" rx="20.66" ry="20.29" transform="matrix(0.83, -0.56, 0.56, 0.83, -426.9, 69.91)"/><ellipse class="cls-4" cx="366.63" cy="254.64" rx="20.66" ry="20.29" transform="translate(-413.64 71.87) rotate(-34.18)"/><ellipse class="cls-4" cx="382.53" cy="233.48" rx="20.66" ry="20.29" transform="translate(-399 77.15) rotate(-34.18)"/><ellipse class="cls-4" cx="400.91" cy="219.26" rx="20.66" ry="20.29" transform="translate(-387.84 85.02) rotate(-34.18)"/><ellipse class="cls-4" cx="444.53" cy="200.82" rx="20.66" ry="20.29" transform="translate(-369.94 106.35) rotate(-34.18)"/><ellipse class="cls-4" cx="419.94" cy="208.64" rx="20.66" ry="20.29" transform="matrix(0.83, -0.56, 0.56, 0.83, -378.58, 93.88)"/><rect class="cls-2" x="5.26" y="167.3" width="226.02" height="37.95" rx="18.98" ry="18.98"/><rect class="cls-5" x="31.19" y="125.35" width="175.53" height="111" rx="43.27" ry="43.27"/><circle class="cls-6" cx="74.39" cy="161.4" r="43.88"/><circle class="cls-6" cx="165.22" cy="161.4" r="43.88"/><circle class="cls-7" cx="82.21" cy="171.48" r="6.35"/><circle class="cls-7" cx="158.25" cy="174.5" r="6.35"/><path class="cls-8" d="M454.14,380.75h16.72c0,11.95-7.55,21.78-16.72,21.78s-16.72-9.83-16.72-21.78Z" transform="translate(-333.91 -178.12)"/><path class="cls-2" d="M454.14,414.47h23.8a23.81,23.81,0,0,1-47.61,0Z" transform="translate(-333.91 -178.12)"/><circle class="cls-5" cx="55.95" cy="298.61" r="26.26"/><circle class="cls-5" cx="184.51" cy="297.3" r="26.26"/><rect class="cls-5" x="340.43" y="438.9" width="59.76" height="20.52" rx="7.51" ry="7.51" transform="translate(-167.43 816.31) rotate(-120)"/><rect class="cls-5" x="502.35" y="440.21" width="59.76" height="20.52" rx="7.51" ry="7.51" transform="translate(-427.94 578.92) rotate(-66.33)"/><rect class="cls-5" x="370.78" y="439.45" width="59.76" height="20.52" rx="7.51" ry="7.51" transform="translate(-505.98 457.97) rotate(-66.33)"/><rect class="cls-5" x="475.25" y="439.82" width="59.76" height="20.52" rx="7.51" ry="7.51" transform="translate(34.01 934.46) rotate(-120)"/></svg>