<svg id="Calque_1" data-name="Calque 1" xmlns="http://www.w3.org/2000/svg" viewBox="0 0 239.48 367.74"><defs><style>.cls-1{fill:#fffabd;}.cls-2{fill:#f6cea6;}.cls-3{fill:#fffccc;}.cls-4{fill:#383127;}.cls-5{fill:#e5c59e;}.cls-6,.cls-8{fill:#fff;}.cls-6{stroke:#bfcfc6;stroke-width:12px;}.cls-6,.cls-7{stroke-miterlimit:10;}.cls-7{stroke:#000;stroke-width:13px;}</style></defs><title>BONHOMME SITEWEB</title><path class="cls-1" d="M385.29,508l6.54,5.87c6,5.4,15.69,3.08,21.62-5.18l28-39c5.93-8.26,5.87-19.33-.15-24.73l-6.53-5.87c-6-5.4-15.69-3.08-21.62,5.18l-28,39C379.21,491.54,379.28,502.62,385.29,508Z" transform="translate(-354.38 -168.08)"/><path class="cls-2" d="M411.49,515h0c6.05-6.46,8.2-15,4.79-19.12L407,484.69c-3.41-4.09-11.08-2.17-17.14,4.3h0c-6,6.47-8.2,15-4.79,19.13l9.3,11.18C397.76,523.4,405.43,521.47,411.49,515Z" transform="translate(-354.38 -168.08)"/><path class="cls-1" d="M564.32,507.2l-6.53,5.87c-6,5.39-15.69,3.07-21.63-5.19l-28-39c-5.93-8.26-5.86-19.33.15-24.73l6.54-5.87c6-5.4,15.69-3.08,21.62,5.18l28,39C570.4,490.72,570.33,501.8,564.32,507.2Z" transform="translate(-354.38 -168.08)"/><path class="cls-3" d="M120.13,268.92h0a51.21,51.21,0,0,1,51.21,51.21v34.35a0,0,0,0,1,0,0H70.93a2,2,0,0,1-2-2V320.13a51.21,51.21,0,0,1,51.21-51.21Z"/><ellipse class="cls-4" cx="475.04" cy="327.5" rx="103.62" ry="101.76" transform="translate(-456.31 155.41) rotate(-34.18)"/><ellipse class="cls-4" cx="568.13" cy="320.31" rx="20.66" ry="20.29" transform="translate(-436.19 206.48) rotate(-34.18)"/><ellipse class="cls-4" cx="564.55" cy="300.28" rx="20.66" ry="20.29" transform="translate(-425.55 201.01) rotate(-34.18)"/><ellipse class="cls-4" cx="551.73" cy="274.73" rx="20.66" ry="20.29" transform="translate(-413.41 189.39) rotate(-34.18)"/><ellipse class="cls-4" cx="540.27" cy="257.99" rx="20.66" ry="20.29" transform="translate(-405.99 180.05) rotate(-34.18)"/><ellipse class="cls-4" cx="518.82" cy="241.39" rx="20.66" ry="20.29" transform="translate(-400.37 165.13) rotate(-34.18)"/><path class="cls-4" d="M493,231.36l20.46-2.19a20.94,20.94,0,0,1-16.88,22.22,20.26,20.26,0,0,1-23.81-16.14,20.9,20.9,0,0,1,16.65-23.92,20.24,20.24,0,0,1,23.81,16.13Z" transform="translate(-354.38 -168.08)"/><ellipse class="cls-4" cx="565.37" cy="365.58" rx="20.66" ry="20.29" transform="translate(-462.11 212.75) rotate(-34.18)"/><ellipse class="cls-4" cx="571.28" cy="345.94" rx="20.66" ry="20.29" transform="translate(-450.05 212.67) rotate(-34.18)"/><ellipse class="cls-4" cx="533.99" cy="398.28" rx="20.66" ry="20.29" transform="translate(-485.9 200.76) rotate(-34.18)"/><ellipse class="cls-4" cx="551.59" cy="387.46" rx="20.66" ry="20.29" transform="translate(-476.78 208.78) rotate(-34.18)"/><ellipse class="cls-4" cx="507.59" cy="412.69" rx="20.66" ry="20.29" transform="translate(-498.56 188.42) rotate(-34.18)"/><ellipse class="cls-4" cx="487.6" cy="417.75" rx="20.66" ry="20.29" transform="translate(-504.85 178.06) rotate(-34.18)"/><ellipse class="cls-4" cx="460.99" cy="421.66" rx="20.66" ry="20.29" transform="translate(-511.65 163.79) rotate(-34.18)"/><ellipse class="cls-4" cx="439.15" cy="416.54" rx="20.66" ry="20.29" transform="translate(-512.54 150.63) rotate(-34.18)"/><ellipse class="cls-4" cx="412.16" cy="398.58" rx="20.66" ry="20.29" transform="translate(-507.12 132.36) rotate(-34.18)"/><ellipse class="cls-4" cx="397.64" cy="382.43" rx="20.66" ry="20.29" transform="translate(-500.55 121.41) rotate(-34.18)"/><ellipse class="cls-4" cx="378.01" cy="356.53" rx="20.66" ry="20.29" transform="translate(-489.39 105.91) rotate(-34.18)"/><ellipse class="cls-4" cx="374.92" cy="336.41" rx="20.66" ry="20.29" transform="translate(-478.62 100.7) rotate(-34.18)"/><ellipse class="cls-4" cx="377.28" cy="308.05" rx="20.66" ry="20.29" transform="translate(-462.28 97.13) rotate(-34.18)"/><ellipse class="cls-4" cx="387.1" cy="287.48" rx="20.66" ry="20.29" transform="translate(-449.02 99.09) rotate(-34.18)"/><ellipse class="cls-4" cx="403" cy="266.32" rx="20.66" ry="20.29" transform="translate(-434.39 104.36) rotate(-34.18)"/><ellipse class="cls-4" cx="421.38" cy="252.1" rx="20.66" ry="20.29" transform="translate(-423.22 112.24) rotate(-34.18)"/><ellipse class="cls-4" cx="465" cy="233.66" rx="20.66" ry="20.29" transform="translate(-405.32 133.56) rotate(-34.18)"/><ellipse class="cls-4" cx="440.41" cy="241.48" rx="20.66" ry="20.29" transform="translate(-413.96 121.09) rotate(-34.18)"/><rect class="cls-2" x="5.26" y="210.17" width="226.02" height="37.95" rx="18.98" ry="18.98"/><rect class="cls-5" x="31.19" y="168.23" width="175.53" height="111" rx="43.27" ry="43.27"/><circle class="cls-6" cx="74.39" cy="204.27" r="43.88"/><circle class="cls-6" cx="165.22" cy="204.27" r="43.88"/><circle class="cls-7" cx="82.21" cy="214.36" r="6.35"/><circle class="cls-7" cx="158.25" cy="217.38" r="6.35"/><path class="cls-8" d="M476.35,414h26.9a26.9,26.9,0,0,1-53.79,0Z" transform="translate(-354.38 -168.08)"/><path class="cls-2" d="M474.61,447.31h23.8a23.81,23.81,0,0,1-47.61,0Z" transform="translate(-354.38 -168.08)"/><circle class="cls-5" cx="55.95" cy="341.48" r="26.26"/><circle class="cls-5" cx="184.51" cy="340.17" r="26.26"/><path class="cls-5" d="M534.57,477.48h39.23a11,11,0,0,1,11,11v0A9.56,9.56,0,0,1,575.2,498H534.57a9.56,9.56,0,0,1-9.56-9.56V487a9.56,9.56,0,0,1,9.56-9.56Z" transform="translate(-287.23 874.55) rotate(-90)"/><path class="cls-5" d="M374.83,478.83h39.23a11,11,0,0,1,11,11v0a9.56,9.56,0,0,1-9.56,9.56H374.83a9.56,9.56,0,0,1-9.56-9.56v-1.39A9.56,9.56,0,0,1,374.83,478.83Z" transform="translate(-448.32 716.16) rotate(-90)"/><polygon class="cls-1" points="30.59 58.17 23.38 52.74 14.82 55.61 17.75 47.07 12.38 39.82 21.41 39.97 26.65 32.62 29.29 41.25 37.9 43.96 30.51 49.14 30.59 58.17"/><polygon class="cls-1" points="69.07 40.89 61.86 35.46 53.3 38.33 56.23 29.79 50.86 22.54 59.88 22.69 65.12 15.34 67.77 23.97 76.38 26.68 68.99 31.86 69.07 40.89"/><polygon class="cls-1" points="114.67 25.55 107.45 20.13 98.89 22.99 101.83 14.45 96.45 7.2 105.48 7.35 110.72 0 113.36 8.63 121.97 11.34 114.58 16.53 114.67 25.55"/><polygon class="cls-1" points="163.7 25.55 156.49 20.13 147.93 22.99 150.86 14.45 145.49 7.2 154.52 7.35 159.76 0 162.4 8.63 171.01 11.34 163.62 16.53 163.7 25.55"/><polygon class="cls-1" points="202.66 40.89 195.45 35.46 186.89 38.33 189.82 29.79 184.45 22.54 193.47 22.69 198.71 15.34 201.36 23.97 209.97 26.68 202.58 31.86 202.66 40.89"/><polygon class="cls-1" points="232.17 59.15 224.96 53.72 216.4 56.59 219.33 48.05 213.96 40.8 222.99 40.95 228.23 33.6 230.87 42.23 239.48 44.94 232.09 50.12 232.17 59.15"/></svg>