<svg id="Calque_1" data-name="Calque 1" xmlns="http://www.w3.org/2000/svg" viewBox="0 0 237.44 326.18"><defs><style>.cls-1{fill:#fffabd;}.cls-2{fill:#f6cea6;}.cls-3{fill:#fffccc;}.cls-4{fill:#383127;}.cls-5{fill:#e5c59e;}.cls-6,.cls-8{fill:#fff;}.cls-6{stroke:#bfcfc6;stroke-width:12px;}.cls-6,.cls-7{stroke-miterlimit:10;}.cls-7{stroke:#000;stroke-width:13px;}.cls-9{fill:#d5cee7;}</style></defs><title>Sans titre - 3</title><path class="cls-1" d="M361.73,483.9l6.54,5.87c6,5.4,15.69,3.08,21.62-5.18l28-39c5.93-8.26,5.86-19.34-.15-24.74L411.18,415c-6-5.4-15.69-3.08-21.63,5.18l-28,39C355.65,467.43,355.72,478.5,361.73,483.9Z" transform="translate(-330.82 -186.84)"/><path class="cls-2" d="M387.93,490.89h0c6.05-6.47,8.2-15,4.79-19.12l-9.3-11.19c-3.41-4.09-11.08-2.17-17.14,4.3h0c-6,6.47-8.2,15-4.79,19.12l9.3,11.19C374.2,499.28,381.87,497.36,387.93,490.89Z" transform="translate(-330.82 -186.84)"/><path class="cls-1" d="M540.76,483.08,534.23,489c-6,5.4-15.7,3.08-21.63-5.18l-28-39c-5.93-8.26-5.86-19.33.15-24.73l6.54-5.87c6-5.4,15.69-3.08,21.62,5.18l28,39C546.84,466.61,546.77,477.69,540.76,483.08Z" transform="translate(-330.82 -186.84)"/><path class="cls-2" d="M514.57,490.07h0c-6.06-6.46-8.21-15-4.8-19.12l9.31-11.19c3.4-4.09,11.07-2.17,17.13,4.3h0c6.06,6.47,8.2,15,4.8,19.13l-9.31,11.18C528.29,498.47,520.62,496.54,514.57,490.07Z" transform="translate(-330.82 -186.84)"/><path class="cls-3" d="M120.13,226h0a51.21,51.21,0,0,1,51.21,51.21V311.6a0,0,0,0,1,0,0H70.93a2,2,0,0,1-2-2V277.25A51.21,51.21,0,0,1,120.13,226Z"/><ellipse class="cls-4" cx="451.48" cy="303.39" rx="103.62" ry="101.76" transform="translate(-423.28 119.24) rotate(-34.18)"/><ellipse class="cls-4" cx="544.57" cy="296.19" rx="20.66" ry="20.29" transform="translate(-403.15 170.31) rotate(-34.18)"/><ellipse class="cls-4" cx="540.99" cy="276.16" rx="20.66" ry="20.29" transform="translate(-392.52 164.84) rotate(-34.18)"/><ellipse class="cls-4" cx="528.17" cy="250.62" rx="20.66" ry="20.29" transform="translate(-380.38 153.22) rotate(-34.18)"/><ellipse class="cls-4" cx="516.71" cy="233.88" rx="20.66" ry="20.29" transform="matrix(0.83, -0.56, 0.56, 0.83, -372.95, 143.89)"/><ellipse class="cls-4" cx="495.26" cy="217.28" rx="20.66" ry="20.29" transform="translate(-367.33 128.97) rotate(-34.18)"/><path class="cls-4" d="M469.43,207.24l20.46-2.18A20.92,20.92,0,0,1,473,227.27a20.25,20.25,0,0,1-23.81-16.13,20.92,20.92,0,0,1,16.65-23.93,20.25,20.25,0,0,1,23.81,16.14Z" transform="translate(-330.82 -186.84)"/><ellipse class="cls-4" cx="541.81" cy="341.47" rx="20.66" ry="20.29" transform="translate(-429.07 176.58) rotate(-34.18)"/><ellipse class="cls-4" cx="547.71" cy="321.83" rx="20.66" ry="20.29" transform="translate(-417.01 176.51) rotate(-34.18)"/><ellipse class="cls-4" cx="510.43" cy="374.17" rx="20.66" ry="20.29" transform="translate(-452.86 164.6) rotate(-34.18)"/><ellipse class="cls-4" cx="528.03" cy="363.34" rx="20.66" ry="20.29" transform="translate(-443.74 172.61) rotate(-34.18)"/><ellipse class="cls-4" cx="484.03" cy="388.58" rx="20.66" ry="20.29" transform="translate(-465.52 152.25) rotate(-34.18)"/><ellipse class="cls-4" cx="464.04" cy="393.63" rx="20.66" ry="20.29" transform="translate(-471.81 141.9) rotate(-34.18)"/><ellipse class="cls-4" cx="437.43" cy="397.55" rx="20.66" ry="20.29" transform="translate(-478.61 127.62) rotate(-34.18)"/><ellipse class="cls-4" cx="415.59" cy="392.42" rx="20.66" ry="20.29" transform="translate(-479.5 114.46) rotate(-34.18)"/><ellipse class="cls-4" cx="388.59" cy="374.47" rx="20.66" ry="20.29" transform="translate(-474.08 96.2) rotate(-34.18)"/><ellipse class="cls-4" cx="374.08" cy="358.32" rx="20.66" ry="20.29" transform="translate(-467.52 85.25) rotate(-34.18)"/><ellipse class="cls-4" cx="354.45" cy="332.42" rx="20.66" ry="20.29" transform="translate(-456.35 69.74) rotate(-34.18)"/><ellipse class="cls-4" cx="351.36" cy="312.3" rx="20.66" ry="20.29" transform="translate(-445.58 64.53) rotate(-34.18)"/><ellipse class="cls-4" cx="353.72" cy="283.94" rx="20.66" ry="20.29" transform="translate(-429.24 60.96) rotate(-34.18)"/><ellipse class="cls-4" cx="363.54" cy="263.36" rx="20.66" ry="20.29" transform="translate(-415.98 62.92) rotate(-34.18)"/><ellipse class="cls-4" cx="379.44" cy="242.21" rx="20.66" ry="20.29" transform="translate(-401.35 68.2) rotate(-34.18)"/><ellipse class="cls-4" cx="397.82" cy="227.99" rx="20.66" ry="20.29" transform="translate(-390.18 76.07) rotate(-34.18)"/><ellipse class="cls-4" cx="441.44" cy="209.55" rx="20.66" ry="20.29" transform="translate(-372.28 97.4) rotate(-34.18)"/><ellipse class="cls-4" cx="416.85" cy="217.36" rx="20.66" ry="20.29" transform="translate(-380.93 84.93) rotate(-34.18)"/><rect class="cls-2" x="5.26" y="167.3" width="226.02" height="37.95" rx="18.98" ry="18.98"/><rect class="cls-5" x="31.19" y="125.35" width="175.53" height="111" rx="43.27" ry="43.27"/><circle class="cls-6" cx="74.39" cy="161.4" r="43.88"/><circle class="cls-6" cx="165.22" cy="161.4" r="43.88"/><circle class="cls-7" cx="77.19" cy="180.85" r="6.35"/><circle class="cls-7" cx="165.22" cy="180.85" r="6.35"/><path class="cls-8" d="M451.05,397.78h16.72c0,7.4-7.55,13.48-16.72,13.48s-16.72-6.08-16.72-13.47Z" transform="translate(-330.82 -186.84)"/><path class="cls-2" d="M451.05,423.19h23.8a23.81,23.81,0,0,1-47.61,0Z" transform="translate(-330.82 -186.84)"/><rect class="cls-2" x="375.19" y="488.33" width="49.99" height="22.27" rx="7.51" ry="7.51" transform="translate(-298.12 -211.37) rotate(3.66)"/><circle class="cls-5" cx="55.95" cy="298.61" r="26.26"/><rect class="cls-2" x="482.71" y="487.31" width="49.99" height="22.27" rx="7.51" ry="7.51" transform="translate(-420.61 -74.67) rotate(-11.59)"/><circle class="cls-5" cx="184.51" cy="297.3" r="26.26"/><rect class="cls-5" x="375.76" y="459.21" width="59.76" height="20.52" rx="7.51" ry="7.51" transform="translate(-481.23 7.4) rotate(-22.84)"/><rect class="cls-5" x="466.57" y="457.9" width="59.76" height="20.52" rx="7.51" ry="7.51" transform="translate(441.47 905.46) rotate(-157.16)"/><rect class="cls-9" x="75.02" y="279.44" width="93.36" height="23.47"/><rect class="cls-5" x="378.98" y="479.48" width="59.76" height="20.52" rx="7.51" ry="7.51" transform="translate(-224.08 -259) rotate(11.59)"/><rect class="cls-5" x="463.36" y="478.17" width="59.76" height="20.52" rx="7.51" ry="7.51" transform="matrix(-0.98, 0.2, -0.2, -0.98, 743.74, 680.96)"/></svg>